<svg xmlns="http://www.w3.org/2000/svg" width="800" height="600" viewBox="0 0 800 600" fill="none">
  <rect width="800" height="600" fill="#334155"/>
  <rect x="150" y="100" width="500" height="400" rx="10" fill="#F3F4F6"/>
  <rect x="180" y="130" width="440" height="60" rx="8" fill="#93C5FD"/>
  <rect x="180" y="220" width="440" height="60" rx="8" fill="#DBEAFE"/>
  <rect x="180" y="310" width="440" height="60" rx="8" fill="#DBEAFE"/>
  <rect x="180" y="400" width="440" height="60" rx="8" fill="#DBEAFE"/>
  <path d="M200 160 L220 145 L240 165 L260 130 L280 155" stroke="#1E40AF" stroke-width="5" stroke-linecap="round"/>
  <circle cx="200" cy="250" r="10" fill="#1E40AF"/>
  <rect x="220" y="245" width="120" height="10" rx="5" fill="#1E40AF"/>
  <circle cx="200" cy="340" r="10" fill="#1E40AF"/>
  <rect x="220" y="335" width="120" height="10" rx="5" fill="#1E40AF"/>
  <circle cx="200" cy="430" r="10" fill="#1E40AF"/>
  <rect x="220" y="425" width="120" height="10" rx="5" fill="#1E40AF"/>
</svg>
